<svg xmlns="http://www.w3.org/2000/svg" width="1005" height="600"><rect width="1005" height="600" x="0" y="0" fill="#FFFFFF" id="backgorund"/><g id="viz"><clipPath id="serieClipPath"><rect x="-50" y="-20" width="805" height="600"/></clipPath><g transform="translate(0,0)"><g transform="translate(50,20)" clip-path="url(#serieClipPath)"><g id="axis"><g transform="translate(0,560)" fill="none" font-size="10" font-family="sans-serif" text-anchor="middle"><path class="domain" stroke="currentColor" d="M0,6V0H735V6"/><g class="tick" opacity="1" transform="translate(0,0)"><line stroke="currentColor" y2="6"/><text fill="currentColor" y="9" dy="0.71em">Jan 03</text></g><g class="tick" opacity="1" transform="translate(56.53846153846154,0)"><line stroke="currentColor" y2="6"/><text fill="currentColor" y="9" dy="0.71em">Jan 10</text></g><g class="tick" opacity="1" transform="translate(113.07692307692308,0)"><line stroke="currentColor" y2="6"/><text fill="currentColor" y="9" dy="0.71em">Jan 17</text></g><g class="tick" opacity="1" transform="translate(169.6153846153846,0)"><line stroke="currentColor" y2="6"/><text fill="currentColor" y="9" dy="0.71em">Jan 24</text></g><g class="tick" opacity="1" transform="translate(226.15384615384616,0)"><line stroke="currentColor" y2="6"/><text fill="currentColor" y="9" dy="0.71em">Jan 31</text></g><g class="tick" opacity="1" transform="translate(282.69230769230774,0)"><line stroke="currentColor" y2="6"/><text fill="currentColor" y="9" dy="0.71em">Feb 07</text></g><g class="tick" opacity="1" transform="translate(339.2307692307692,0)"><line stroke="currentColor" y2="6"/><text fill="currentColor" y="9" dy="0.71em">Feb 14</text></g><g class="tick" opacity="1" transform="translate(395.7692307692308,0)"><line stroke="currentColor" y2="6"/><text fill="currentColor" y="9" dy="0.71em">Feb 21</text></g><g class="tick" opacity="1" transform="translate(452.3076923076923,0)"><line stroke="currentColor" y2="6"/><text fill="currentColor" y="9" dy="0.71em">Feb 28</text></g><g class="tick" opacity="1" transform="translate(508.8461538461538,0)"><line stroke="currentColor" y2="6"/><text fill="currentColor" y="9" dy="0.71em">Mar 06</text></g><g class="tick" opacity="1" transform="translate(565.3846153846155,0)"><line stroke="currentColor" y2="6"/><text fill="currentColor" y="9" dy="0.71em">Mar 13</text></g><g class="tick" opacity="1" transform="translate(621.9230769230769,0)"><line stroke="currentColor" y2="6"/><text fill="currentColor" y="9" dy="0.71em">Mar 20</text></g><g class="tick" opacity="1" transform="translate(678.4615384615385,0)"><line stroke="currentColor" y2="6"/><text fill="currentColor" y="9" dy="0.71em">Mar 27</text></g><g class="tick" opacity="1" transform="translate(735,0)"><line stroke="currentColor" y2="6"/><text fill="currentColor" y="9" dy="0.71em">Apr 03</text></g><text x="735" dy="-5" text-anchor="end" style="font-family: Arial, sans-serif; font-size: 12px; fill: rgb(123, 123, 123); font-weight: bold;">日期</text></g><g transform="translate(0,0)" fill="none" font-size="10" font-family="sans-serif" text-anchor="end"><path class="domain" stroke="currentColor" d="M0,560V0"/><g class="tick" opacity="1" transform="translate(0,560)"><line stroke="currentColor" x2="-6"/><text fill="currentColor" x="-9" dy="0.32em">620</text></g><g class="tick" opacity="1" transform="translate(0,497.77777777777777)"><line stroke="currentColor" x2="-6"/><text fill="currentColor" x="-9" dy="0.32em">640</text></g><g class="tick" opacity="1" transform="translate(0,435.55555555555554)"><line stroke="currentColor" x2="-6"/><text fill="currentColor" x="-9" dy="0.32em">660</text></g><g class="tick" opacity="1" transform="translate(0,373.33333333333337)"><line stroke="currentColor" x2="-6"/><text fill="currentColor" x="-9" dy="0.32em">680</text></g><g class="tick" opacity="1" transform="translate(0,311.11111111111114)"><line stroke="currentColor" x2="-6"/><text fill="currentColor" x="-9" dy="0.32em">700</text></g><g class="tick" opacity="1" transform="translate(0,248.88888888888889)"><line stroke="currentColor" x2="-6"/><text fill="currentColor" x="-9" dy="0.32em">720</text></g><g class="tick" opacity="1" transform="translate(0,186.66666666666669)"><line stroke="currentColor" x2="-6"/><text fill="currentColor" x="-9" dy="0.32em">740</text></g><g class="tick" opacity="1" transform="translate(0,124.44444444444444)"><line stroke="currentColor" x2="-6"/><text fill="currentColor" x="-9" dy="0.32em">760</text></g><g class="tick" opacity="1" transform="translate(0,62.22222222222225)"><line stroke="currentColor" x2="-6"/><text fill="currentColor" x="-9" dy="0.32em">780</text></g><g class="tick" opacity="1" transform="translate(0,0)"><line stroke="currentColor" x2="-6"/><text fill="currentColor" x="-9" dy="0.32em">800</text></g><text x="4" text-anchor="start" dominant-baseline="hanging" style="font-family: Arial, sans-serif; font-size: 12px; fill: rgb(123, 123, 123); font-weight: bold;">收盤價</text></g></g><g id="viz"><g><path d="M0,485.33333333333337C4.038461538461539,485.33333333333337,4.038461538461539,510.22222222222223,8.076923076923078,510.22222222222223C12.115384615384617,510.22222222222223,12.115384615384617,525.7777777777778,16.153846153846157,525.7777777777778C20.192307692307693,525.7777777777778,20.192307692307693,435.55555555555554,24.23076923076923,435.55555555555554C36.34615384615385,435.55555555555554,36.34615384615385,388.88888888888886,48.46153846153846,388.88888888888886C52.5,388.88888888888886,52.5,329.77777777777777,56.53846153846154,329.77777777777777C60.57692307692308,329.77777777777777,60.57692307692308,289.3333333333333,64.61538461538463,289.3333333333333C68.65384615384616,289.3333333333333,68.65384615384616,264.44444444444446,72.6923076923077,264.44444444444446C76.73076923076923,264.44444444444446,76.73076923076923,329.77777777777777,80.76923076923077,329.77777777777777C92.88461538461539,329.77777777777777,92.88461538461539,298.6666666666667,105,298.6666666666667C109.03846153846155,298.6666666666667,109.03846153846155,332.8888888888889,113.07692307692308,332.8888888888889C165.57692307692307,332.8888888888889,165.57692307692307,189.7777777777778,218.07692307692307,189.7777777777778C222.1153846153846,189.7777777777778,222.1153846153846,255.11111111111114,226.15384615384616,255.11111111111114C230.19230769230768,255.11111111111114,230.19230769230768,236.44444444444449,234.23076923076923,236.44444444444449C238.26923076923077,236.44444444444449,238.26923076923077,164.88888888888886,242.3076923076923,164.88888888888886C246.34615384615384,164.88888888888886,246.34615384615384,152.44444444444446,250.3846153846154,152.44444444444446C262.5,152.44444444444446,262.5,214.66666666666666,274.61538461538464,214.66666666666666C278.6538461538462,214.66666666666666,278.6538461538462,258.22222222222223,282.69230769230774,258.22222222222223C286.7307692307693,258.22222222222223,286.7307692307693,174.22222222222223,290.7692307692308,174.22222222222223C294.8076923076923,174.22222222222223,294.8076923076923,158.66666666666666,298.84615384615387,158.66666666666666C302.8846153846154,158.66666666666666,302.8846153846154,186.66666666666669,306.92307692307696,186.66666666666669C319.03846153846155,186.66666666666669,319.03846153846155,214.66666666666666,331.1538461538462,214.66666666666666C335.19230769230774,214.66666666666666,335.19230769230774,211.55555555555554,339.2307692307692,211.55555555555554C343.2692307692308,211.55555555555554,343.2692307692308,280,347.3076923076923,280C351.34615384615387,280,351.34615384615387,276.8888888888889,355.3846153846154,276.8888888888889C359.4230769230769,276.8888888888889,359.4230769230769,239.55555555555557,363.46153846153845,239.55555555555557C375.5769230769231,239.55555555555557,375.5769230769231,230.2222222222222,387.6923076923077,230.2222222222222C391.7307692307692,230.2222222222222,391.7307692307692,233.33333333333331,395.7692307692308,233.33333333333331C399.8076923076923,233.33333333333331,399.8076923076923,270.66666666666663,403.84615384615387,270.66666666666663C407.88461538461536,270.66666666666663,407.88461538461536,171.11111111111111,411.9230769230769,171.11111111111111C415.96153846153845,171.11111111111111,415.96153846153845,239.55555555555557,420,239.55555555555557C444.2307692307692,239.55555555555557,444.2307692307692,28.000000000000025,468.46153846153845,28.000000000000025C472.5,28.000000000000025,472.5,77.77777777777774,476.53846153846155,77.77777777777774C480.5769230769231,77.77777777777774,480.5769230769231,77.77777777777774,484.6153846153846,77.77777777777774C496.73076923076917,77.77777777777774,496.73076923076917,49.777777777777786,508.8461538461538,49.777777777777786C512.8846153846155,49.777777777777786,512.8846153846155,37.33333333333333,516.923076923077,37.33333333333333C520.9615384615386,37.33333333333333,520.9615384615386,99.55555555555557,525,99.55555555555557C529.0384615384615,99.55555555555557,529.0384615384615,102.66666666666667,533.0769230769231,102.66666666666667C537.1153846153846,102.66666666666667,537.1153846153846,136.8888888888889,541.1538461538462,136.8888888888889C553.2692307692308,136.8888888888889,553.2692307692308,111.99999999999997,565.3846153846155,111.99999999999997C569.4230769230769,111.99999999999997,569.4230769230769,121.33333333333334,573.4615384615385,121.33333333333334C577.5,121.33333333333334,577.5,130.66666666666663,581.5384615384615,130.66666666666663C585.5769230769231,130.66666666666663,585.5769230769231,136.8888888888889,589.6153846153846,136.8888888888889C593.6538461538462,136.8888888888889,593.6538461538462,84.00000000000001,597.6923076923077,84.00000000000001C609.8076923076924,84.00000000000001,609.8076923076924,93.33333333333331,621.9230769230769,93.33333333333331C625.9615384615385,93.33333333333331,625.9615384615385,90.22222222222221,630,90.22222222222221C634.0384615384615,90.22222222222221,634.0384615384615,59.111111111111086,638.0769230769231,59.111111111111086C642.1153846153846,59.111111111111086,642.1153846153846,21.777777777777764,646.1538461538462,21.777777777777764C650.1923076923076,21.777777777777764,650.1923076923076,31.111111111111125,654.2307692307692,31.111111111111125C666.3461538461538,31.111111111111125,666.3461538461538,62.22222222222225,678.4615384615385,62.22222222222225C682.5,62.22222222222225,682.5,105.77777777777777,686.5384615384615,105.77777777777777C690.5769230769231,105.77777777777777,690.5769230769231,84.00000000000001,694.6153846153846,84.00000000000001C698.6538461538462,84.00000000000001,698.6538461538462,68.44444444444446,702.6923076923077,68.44444444444446C706.7307692307693,68.44444444444446,706.7307692307693,40.44444444444443,710.7692307692308,40.44444444444443" stroke="#1f77b4" fill="none"/><text font-family="sans-serif" font-size="10" class="labels" x="646.1538461538462" y="21.777777777777764" dx="0" dy="-4" text-anchor="middle"/></g></g></g><text y="4" x="4" style="font-family: Arial, sans-serif; font-size: 12px; fill: black; font-weight: bold; dominant-baseline: hanging;"/></g><g id="grid"><rect x="0" y="0" width="805" height="600" fill="none" stroke="#ccc"/></g></g><g id="legend" transform="translate(805,20)"><g transform="translate(5,0)"/></g></svg>